<svg width="25" height="30" viewBox="0 0 25 30" fill="none" xmlns="http://www.w3.org/2000/svg">
    <path d="M12.2778 14C13.5853 14 14.8635 13.5895 15.9507 12.8203C17.0379 12.0511 17.8853 10.9579 18.3857 9.67879C18.886 8.3997 19.017 6.99224 18.7619 5.63437C18.5068 4.2765 17.8771 3.02922 16.9525 2.05026C16.028 1.07129 14.85 0.404603 13.5675 0.134506C12.2851 -0.13559 10.9558 0.00303298 9.74782 0.532846C8.5398 1.06266 7.50728 1.95987 6.78084 3.11101C6.05441 4.26216 5.66667 5.61553 5.66667 7C5.66667 8.85652 6.3632 10.637 7.60302 11.9497C8.84285 13.2625 10.5244 14 12.2778 14ZM12.2778 2C13.2118 2 14.1247 2.29325 14.9013 2.84265C15.6779 3.39206 16.2831 4.17296 16.6405 5.08659C16.998 6.00022 17.0915 7.00555 16.9093 7.97545C16.7271 8.94536 16.2773 9.83627 15.6169 10.5355C14.9565 11.2348 14.1151 11.711 13.199 11.9039C12.283 12.0969 11.3335 11.9978 10.4707 11.6194C9.60779 11.241 8.87028 10.6001 8.3514 9.77785C7.83251 8.95561 7.55556 7.98891 7.55556 7C7.55556 5.67392 8.05308 4.40215 8.93867 3.46447C9.82426 2.52679 11.0254 2 12.2778 2Z" fill="#8D8D8D"/>
    <path d="M24.055 21.37C22.5404 19.675 20.7152 18.3249 18.6911 17.4022C16.6669 16.4795 14.4863 16.0036 12.2825 16.0036C10.0787 16.0036 7.8981 16.4795 5.87394 17.4022C3.84977 18.3249 2.0246 19.675 0.510002 21.37C0.181631 21.7414 -0.000743195 22.2313 2.2764e-06 22.74V28C2.2764e-06 28.5304 0.19901 29.0392 0.553245 29.4142C0.90748 29.7893 1.38793 30 1.88889 30H22.6667C23.1676 30 23.6481 29.7893 24.0023 29.4142C24.3566 29.0392 24.5556 28.5304 24.5556 28V22.74C24.5589 22.2327 24.3799 21.7429 24.055 21.37ZM22.6667 28H1.88889V22.73C3.22738 21.2377 4.83866 20.0494 6.62467 19.2373C8.41068 18.4253 10.3341 18.0065 12.2778 18.0065C14.2215 18.0065 16.1449 18.4253 17.9309 19.2373C19.7169 20.0494 21.3282 21.2377 22.6667 22.73V28Z" fill="#8D8D8D"/>
</svg>
